<svg width="569" height="55" viewBox="0 0 569 55" fill="none" xmlns="http://www.w3.org/2000/svg">
<path d="M6.71655 50.1165H0V7.38624H21.1878V50.1165H14.349V13.4906H6.71655V50.1165ZM32.1633 40.2886C32.1633 41.835 32.4686 42.9337 33.0792 43.5849C33.731 44.1953 34.5858 44.5005 35.6437 44.5005C36.7016 44.5005 37.5365 44.1953 38.1471 43.5849C38.799 42.9337 39.1241 41.835 39.1241 40.2886V17.2142C39.1241 15.6678 38.799 14.5894 38.1471 13.9789C37.5365 13.3278 36.7016 13.0022 35.6437 13.0022C34.5858 13.0022 33.731 13.3278 33.0792 13.9789C32.4686 14.5894 32.1633 15.6678 32.1633 17.2142V40.2886ZM25.4467 17.6415C25.4467 14.1824 26.3214 11.5372 28.0723 9.70589C29.8232 7.83385 32.3465 6.89795 35.6437 6.89795C38.9409 6.89795 41.4642 7.83385 43.2151 9.70589C44.966 11.5372 45.8407 14.1824 45.8407 17.6415V39.8613C45.8407 43.3205 44.966 45.9859 43.2151 47.8579C41.4642 49.6892 38.9409 50.6049 35.6437 50.6049C32.3465 50.6049 29.8232 49.6892 28.0723 47.8579C26.3214 45.9859 25.4467 43.3205 25.4467 39.8613V17.6415ZM78.436 13.4906H70.6203V39.495C70.6203 41.6518 70.3562 43.4221 69.8266 44.8058C69.2969 46.1895 68.5855 47.2882 67.6895 48.1021C66.7934 48.8754 65.7554 49.4248 64.5754 49.7503C63.4351 50.0758 62.2353 50.2386 60.9729 50.2386C60.3623 50.2386 59.8128 50.2386 59.3243 50.2386C58.8358 50.2386 58.3061 50.1978 57.7367 50.1165V44.0122C58.1031 44.053 58.4893 44.0732 58.8969 44.0732C59.3044 44.0732 59.6906 44.0732 60.057 44.0732C61.1148 44.0732 62.0109 43.8088 62.7436 43.2797C63.5175 42.7506 63.9038 41.6518 63.9038 39.9833V7.38624H85.1526V50.1165H78.436V13.4906ZM96.7555 25.394H105.976V31.4983H96.7555V44.0122H108.357V50.1165H90.0389V7.38624H108.357V13.4906H96.7555V25.394ZM119.056 50.1165H112.339V7.38624H119.056V25.6992H126.689V7.38624H133.527V50.1165H126.689V31.8036H119.056V50.1165ZM145.298 50.1165H138.398V7.38624H144.382V32.9634L151.282 7.38624H159.708V50.1165H153.663V19.1676L145.298 50.1165ZM171.291 50.1165H164.575V7.38624H171.291V25.6992H178.924V7.38624H185.762V50.1165H178.924V31.8036H171.291V50.1165ZM197.35 50.1165H190.633V7.38624H208.402V13.4906H197.35V50.1165ZM221.334 7.38624C224.714 7.38624 227.217 8.28162 228.845 10.0722C230.515 11.8627 231.348 14.4876 231.348 17.9467V23.5017C231.348 26.9608 230.515 29.5857 228.845 31.3763C227.217 33.1668 224.714 34.0622 221.334 34.0622H218.159V50.1165H211.443V7.38624H221.334ZM218.159 13.4906V27.9578H221.334C222.394 27.9578 223.207 27.6729 223.777 27.1032C224.348 26.5335 224.632 25.4754 224.632 23.929V17.5194C224.632 15.9731 224.348 14.9149 223.777 14.3452C223.207 13.7755 222.394 13.4906 221.334 13.4906H218.159ZM256.076 50.1165H249.298L248.138 42.364H239.895L238.735 50.1165H232.568L239.407 7.38624H249.237L256.076 50.1165ZM240.75 36.5649H247.222L243.986 14.9556L240.75 36.5649ZM256.703 44.0122C257.07 44.053 257.457 44.0732 257.863 44.0732C258.271 44.0732 258.657 44.0732 259.024 44.0732C260.083 44.0732 260.977 43.8088 261.71 43.2797C262.484 42.7506 262.87 41.6518 262.87 39.9833V7.38624H284.119V44.0122H287.538V55H280.7V50.1165H263.542V55H256.703V44.0122ZM269.587 39.495C269.587 41.2856 269.404 42.7913 269.037 44.0122H277.403V13.4906H269.587V39.495ZM309.69 34.1843V39.8613C309.69 43.3205 308.835 45.9859 307.125 47.8579C305.457 49.6892 302.973 50.6049 299.676 50.6049C296.378 50.6049 293.875 49.6892 292.165 47.8579C290.497 45.9859 289.662 43.3205 289.662 39.8613V17.6415C289.662 14.1824 290.497 11.5372 292.165 9.70589C293.875 7.83385 296.378 6.89795 299.676 6.89795C302.973 6.89795 305.457 7.83385 307.125 9.70589C308.835 11.5372 309.69 14.1824 309.69 17.6415V21.7925H303.339V17.2142C303.339 15.6678 303.014 14.5894 302.362 13.9789C301.752 13.3278 300.917 13.0022 299.859 13.0022C298.801 13.0022 297.946 13.3278 297.294 13.9789C296.684 14.5894 296.378 15.6678 296.378 17.2142V40.2886C296.378 41.835 296.684 42.9134 297.294 43.5239C297.946 44.1343 298.801 44.4395 299.859 44.4395C300.917 44.4395 301.752 44.1343 302.362 43.5239C303.014 42.9134 303.339 41.835 303.339 40.2886V34.1843H309.69ZM322.738 33.0855L320.662 36.9922V50.1165H313.945V7.38624H320.662V26.0044L329.577 7.38624H336.171L326.829 26.4318L336.171 50.1165H329.271L322.738 33.0855ZM345.333 40.2886C345.333 41.835 345.638 42.9337 346.249 43.5849C346.901 44.1953 347.756 44.5005 348.814 44.5005C349.873 44.5005 350.706 44.1953 351.317 43.5849C351.969 42.9337 352.294 41.835 352.294 40.2886V17.2142C352.294 15.6678 351.969 14.5894 351.317 13.9789C350.706 13.3278 349.873 13.0022 348.814 13.0022C347.756 13.0022 346.901 13.3278 346.249 13.9789C345.638 14.5894 345.333 15.6678 345.333 17.2142V40.2886ZM338.617 17.6415C338.617 14.1824 339.493 11.5372 341.242 9.70589C342.993 7.83385 345.516 6.89795 348.814 6.89795C352.111 6.89795 354.636 7.83385 356.385 9.70589C358.136 11.5372 359.011 14.1824 359.011 17.6415V39.8613C359.011 43.3205 358.136 45.9859 356.385 47.8579C354.636 49.6892 352.111 50.6049 348.814 50.6049C345.516 50.6049 342.993 49.6892 341.242 47.8579C339.493 45.9859 338.617 43.3205 338.617 39.8613V17.6415ZM370.157 50.1165H363.257V7.38624H369.241V32.9634L376.141 7.38624H384.567V50.1165H378.522V19.1676L370.157 50.1165ZM381.392 0V5.00555H366.616V0H381.392ZM405.022 40.2886C405.022 41.835 405.328 42.9337 405.938 43.5849C406.588 44.1953 407.443 44.5005 408.503 44.5005C409.56 44.5005 410.396 44.1953 411.006 43.5849C411.656 42.9337 411.983 41.835 411.983 40.2886V17.2142C411.983 15.6678 411.656 14.5894 411.006 13.9789C410.396 13.3278 409.56 13.0022 408.503 13.0022C407.443 13.0022 406.588 13.3278 405.938 13.9789C405.328 14.5894 405.022 15.6678 405.022 17.2142V40.2886ZM398.306 17.6415C398.306 14.1824 399.18 11.5372 400.931 9.70589C402.681 7.83385 405.205 6.89795 408.503 6.89795C411.8 6.89795 414.323 7.83385 416.074 9.70589C417.823 11.5372 418.7 14.1824 418.7 17.6415V39.8613C418.7 43.3205 417.823 45.9859 416.074 47.8579C414.323 49.6892 411.8 50.6049 408.503 50.6049C405.205 50.6049 402.681 49.6892 400.931 47.8579C399.18 45.9859 398.306 43.3205 398.306 39.8613V17.6415ZM429.663 23.4406H432.838C436.216 23.4406 438.72 24.336 440.348 26.1265C442.017 27.9171 442.852 30.542 442.852 34.0011V39.556C442.852 43.0152 442.017 45.6401 440.348 47.4306C438.72 49.2212 436.216 50.1165 432.838 50.1165H422.946V7.38624H440.715V13.4906H429.663V23.4406ZM432.838 44.0122C433.896 44.0122 434.711 43.7273 435.28 43.1576C435.85 42.5879 436.135 41.5297 436.135 39.9833V33.5738C436.135 32.0275 435.85 30.9692 435.28 30.3995C434.711 29.8299 433.896 29.5449 432.838 29.5449H429.663V44.0122H432.838ZM465.665 13.4906H457.85V39.495C457.85 41.6518 457.586 43.4221 457.056 44.8058C456.526 46.1895 455.815 47.2882 454.919 48.1021C454.023 48.8754 452.985 49.4248 451.805 49.7503C450.665 50.0758 449.465 50.2386 448.202 50.2386C447.592 50.2386 447.042 50.2386 446.554 50.2386C446.065 50.2386 445.535 50.1978 444.966 50.1165V44.0122C445.332 44.053 445.719 44.0732 446.126 44.0732C446.534 44.0732 446.92 44.0732 447.286 44.0732C448.344 44.0732 449.24 43.8088 449.973 43.2797C450.747 42.7506 451.133 41.6518 451.133 39.9833V7.38624H472.382V50.1165H465.665V13.4906ZM498.944 50.1165H492.167L491.007 42.364H482.764L481.603 50.1165H475.436L482.275 7.38624H492.106L498.944 50.1165ZM483.618 36.5649H490.091L486.855 14.9556L483.618 36.5649ZM521.431 34.1843V39.8613C521.431 43.3205 520.577 45.9859 518.867 47.8579C517.198 49.6892 514.715 50.6049 511.418 50.6049C508.12 50.6049 505.617 49.6892 503.907 47.8579C502.239 45.9859 501.404 43.3205 501.404 39.8613V17.6415C501.404 14.1824 502.239 11.5372 503.907 9.70589C505.617 7.83385 508.12 6.89795 511.418 6.89795C514.715 6.89795 517.198 7.83385 518.867 9.70589C520.577 11.5372 521.431 14.1824 521.431 17.6415V21.7925H515.081V17.2142C515.081 15.6678 514.756 14.5894 514.104 13.9789C513.494 13.3278 512.659 13.0022 511.601 13.0022C510.543 13.0022 509.688 13.3278 509.036 13.9789C508.426 14.5894 508.12 15.6678 508.12 17.2142V40.2886C508.12 41.835 508.426 42.9134 509.036 43.5239C509.688 44.1343 510.543 44.4395 511.601 44.4395C512.659 44.4395 513.494 44.1343 514.104 43.5239C514.756 42.9134 515.081 41.835 515.081 40.2886V34.1843H521.431ZM523.855 7.38624H544.616V13.4906H537.594V50.1165H530.877V13.4906H523.855V7.38624ZM554.59 50.1165H547.69V7.38624H553.674V32.9634L560.574 7.38624H569V50.1165H562.955V19.1676L554.59 50.1165Z" fill="white"/>
</svg>
